# xmcd
#
# Track frame offsets:
#	150
#	15950
#	29015
#	40330
#	52532
#	67400
#	78712
#	92532
#	115227
#	128077
#	156382
#	172807
#	189112
#	203540
#	220005
#	232730
#
# Disc length: 3270 seconds
#
# Revision: 3
# Processed by: cddbd v1.4PL0 Copyright (c) Steve Scherf et al.
# Submitted via: audiograbber 1.82.00
#
DISCID=c30cc410
DTITLE=Various Artist - Queens of Soul
DYEAR=1900
DGENRE=Soul
TTITLE0=Aretha Franklin - Spanish Harlem
TTITLE1=Carla Thomas - B-A-B-Y
TTITLE2=Doris Troy - Just one look
TTITLE3=Sweet Inspirations - Sweets for my sweet
TTITLE4=Esther Phillips - Release me
TTITLE5=Barbara Lewis - Baby I'm yours
TTITLE6=La Vern Baker - Soul on fire
TTITLE7=Phyllis Hyman - Loving you -Losing you
TTITLE8=Melba Moore - Ain't no love lost
TTITLE9=Gladys Knight and The Pips - Baby don't change your mind
TTITLE10=Andrea True Connection - More more more
TTITLE11=Sister Sledge - We are family
TTITLE12=Stacy Lattisaw - Jump to the beat
TTITLE13=Gladys Knight and The Pips - Love is always on your mind
TTITLE14=Tami Lynn - I'm gonna run away from you
TTITLE15=Betty Wright - Clean up woman
EXTD=
EXTT0=
EXTT1=
EXTT2=
EXTT3=
EXTT4=
EXTT5=
EXTT6=
EXTT7=
EXTT8=
EXTT9=
EXTT10=
EXTT11=
EXTT12=
EXTT13=
EXTT14=
EXTT15=
PLAYORDER=
